# xmcd
#
# Track frame offsets:
#	150
#	18830
#	30497
#	45500
#	57162
#	76847
#	98098
#	110760
#	126520
#	138560
#	155085
#	177481
#	191770
#
# Disc length: 2723 seconds
#
# Revision: 2
# Processed by: cddbd v1.5.2PL0 Copyright (c) Steve Scherf et al.
# Submitted via: audiograbber 1.83.01
#
DISCID=ae0aa10d
DTITLE=MS® - Las Mejores Canciones De Nuestra Vida Vol 2
DYEAR=1998
DGENRE=Ballad
TTITLE0=Lorenzo Santamaria - Para Que No Me Olvides (New)
TTITLE1=Mari Trini - Yo No Soy Esa
TTITLE2=Adamo - Mi Gran Noche
TTITLE3=Marie Laforet - Y Volvamos Al Amor
TTITLE4=Elsa Baeza - Credo
TTITLE5=Juan Bau - Voy A Perder La Cabeza Por Tu Amor
TTITLE6=Jimmy Fontana - El Mundo
TTITLE7=Karina - Concierto Para Enamorados
TTITLE8=Les Surfs - Ahora Te Puedes Marchar
TTITLE9=Pop Tops - Mamy Blue
TTITLE10=Richard Anthony - En Aranjuez Con Tu Amor
TTITLE11=Nicala Di Bari - Guitarra Suena Mas Bajo
TTITLE12=Rita Pavone - Como Tu No Hay Ninguno
EXTD=MS®
EXTT0=
EXTT1=
EXTT2=
EXTT3=
EXTT4=
EXTT5=
EXTT6=
EXTT7=
EXTT8=
EXTT9=
EXTT10=
EXTT11=
EXTT12=
PLAYORDER=
